<svg width="416" height="199" viewBox="0 0 416 199" fill="none" xmlns="http://www.w3.org/2000/svg">
<path d="M110.886 170.158C111.096 172.118 112.51 173.196 114.61 173.196C116.752 173.196 118.208 172.104 118.208 170.256C118.208 168.604 116.948 167.96 115.31 167.442L114.624 167.204C113.294 166.756 112.482 166.35 112.482 165.286C112.482 164.32 113.266 163.732 114.568 163.732C115.856 163.732 116.626 164.334 116.85 165.58H118.012C117.83 163.788 116.64 162.794 114.61 162.794C112.51 162.794 111.25 163.844 111.25 165.412C111.25 166.938 112.3 167.68 114.036 168.226L114.638 168.422C115.884 168.814 116.962 169.22 116.962 170.41C116.962 171.53 116.08 172.244 114.638 172.244C113.14 172.244 112.272 171.474 112.076 170.158H110.886ZM126.587 169.514C126.587 169.472 126.601 169.402 126.601 169.262C126.601 167.302 125.537 165.454 123.115 165.454C120.889 165.454 119.419 167.036 119.419 169.346C119.419 171.572 120.791 173.182 123.101 173.182C124.781 173.182 125.971 172.202 126.433 170.914H125.257C124.907 171.614 124.235 172.244 123.129 172.244C121.631 172.244 120.665 171.25 120.581 169.514H126.587ZM120.637 168.646C120.819 167.288 121.687 166.364 123.087 166.364C124.529 166.364 125.243 167.316 125.383 168.646H120.637ZM128.25 173H129.412V162.99H128.25V173ZM138.318 169.514C138.318 169.472 138.332 169.402 138.332 169.262C138.332 167.302 137.268 165.454 134.846 165.454C132.62 165.454 131.15 167.036 131.15 169.346C131.15 171.572 132.522 173.182 134.832 173.182C136.512 173.182 137.702 172.202 138.164 170.914H136.988C136.638 171.614 135.966 172.244 134.86 172.244C133.362 172.244 132.396 171.25 132.312 169.514H138.318ZM132.368 168.646C132.55 167.288 133.418 166.364 134.818 166.364C136.26 166.364 136.974 167.316 137.114 168.646H132.368ZM145.413 170.676C145.035 171.558 144.391 172.244 143.131 172.244C141.507 172.244 140.639 171.082 140.639 169.318C140.639 167.624 141.563 166.392 143.131 166.392C144.433 166.392 145.091 167.176 145.413 168.044H146.561C146.169 166.602 145.105 165.454 143.131 165.454C140.961 165.454 139.449 166.98 139.449 169.304C139.449 171.67 140.877 173.182 143.117 173.182C144.993 173.182 146.127 172.076 146.547 170.676H145.413ZM148.449 166.518V171.306C148.449 172.72 149.247 173.14 150.465 173.14C150.591 173.14 150.731 173.126 150.857 173.112V172.244C150.745 172.258 150.703 172.258 150.633 172.258C149.947 172.258 149.597 171.95 149.597 171.208V166.518H150.997V165.65H149.597V163.662H148.449V165.65H147.315V166.518H148.449ZM155.766 167.876H156.872C156.97 166.938 157.502 166.364 158.678 166.364C159.924 166.364 160.47 166.994 160.47 168.562C159.882 168.604 159.14 168.702 158.538 168.8C156.746 169.08 155.43 169.598 155.43 171.026C155.43 172.37 156.508 173.14 158.006 173.14C159.336 173.14 160.078 172.608 160.54 171.866C160.54 172.356 160.582 172.692 160.638 173H161.702C161.604 172.664 161.562 172.16 161.562 171.544V169.738C161.562 169.402 161.576 168.926 161.576 168.632C161.576 166.35 160.638 165.454 158.734 165.454C156.956 165.454 155.766 166.504 155.766 167.876ZM160.484 169.738C160.484 171.432 159.7 172.328 158.286 172.328C157.292 172.328 156.648 171.838 156.648 171.012C156.648 169.962 157.782 169.766 159.882 169.458L160.498 169.374C160.484 169.444 160.484 169.528 160.484 169.738ZM167.2 165.65V175.52H168.362V173.84C168.362 173 168.348 172.356 168.334 171.964C168.782 172.594 169.622 173.182 170.84 173.182C172.842 173.182 174.284 171.642 174.284 169.276C174.284 167.008 172.94 165.454 170.924 165.454C169.608 165.454 168.754 166.126 168.334 166.798V165.664L167.2 165.65ZM170.672 172.244C169.146 172.244 168.334 171.096 168.334 169.318C168.334 167.61 169.146 166.392 170.672 166.392C172.17 166.392 173.024 167.61 173.024 169.318C173.024 171.096 172.184 172.244 170.672 172.244ZM177.126 164.404V162.99H175.936V164.404H177.126ZM175.964 165.65V173H177.098V165.65H175.964ZM179.259 173H180.421V168.59C180.421 167.4 181.107 166.392 182.339 166.392C183.599 166.392 184.145 167.302 184.145 168.772V173H185.307V168.408C185.307 166.546 184.467 165.454 182.787 165.454C181.527 165.454 180.771 166.084 180.393 166.7V165.65H179.245C179.259 165.986 179.259 166.42 179.259 166.756V173ZM187.38 173H188.458V171.88C188.892 172.538 189.746 173.182 191.02 173.182C193.022 173.182 194.464 171.642 194.464 169.276C194.464 167.008 193.12 165.454 191.104 165.454C189.788 165.454 188.948 166.112 188.528 166.784C188.542 166.28 188.542 165.608 188.542 165.132V162.99H187.38V173ZM190.852 172.244C189.326 172.244 188.514 171.096 188.514 169.318C188.514 167.61 189.326 166.392 190.852 166.392C192.35 166.392 193.204 167.61 193.204 169.318C193.204 171.096 192.364 172.244 190.852 172.244ZM199.363 172.244C197.753 172.244 196.857 171.068 196.857 169.318C196.857 167.624 197.767 166.392 199.363 166.392C200.945 166.392 201.855 167.624 201.855 169.318C201.855 171.068 200.959 172.244 199.363 172.244ZM199.363 173.182C201.715 173.182 203.115 171.586 203.115 169.332C203.115 167.092 201.673 165.454 199.391 165.454C197.095 165.454 195.667 167.092 195.667 169.332C195.667 171.586 197.011 173.182 199.363 173.182ZM204.602 167.876H205.708C205.806 166.938 206.338 166.364 207.514 166.364C208.76 166.364 209.306 166.994 209.306 168.562C208.718 168.604 207.976 168.702 207.374 168.8C205.582 169.08 204.266 169.598 204.266 171.026C204.266 172.37 205.344 173.14 206.842 173.14C208.172 173.14 208.914 172.608 209.376 171.866C209.376 172.356 209.418 172.692 209.474 173H210.538C210.44 172.664 210.398 172.16 210.398 171.544V169.738C210.398 169.402 210.412 168.926 210.412 168.632C210.412 166.35 209.474 165.454 207.57 165.454C205.792 165.454 204.602 166.504 204.602 167.876ZM209.32 169.738C209.32 171.432 208.536 172.328 207.122 172.328C206.128 172.328 205.484 171.838 205.484 171.012C205.484 169.962 206.618 169.766 208.718 169.458L209.334 169.374C209.32 169.444 209.32 169.528 209.32 169.738ZM213.56 165.65H212.454C212.468 165.986 212.468 166.42 212.468 166.756V173H213.63V168.982C213.63 167.512 214.036 166.56 215.17 166.56C215.324 166.56 215.534 166.574 215.646 166.602V165.496C215.576 165.482 215.492 165.482 215.422 165.482C214.582 165.482 213.812 166.07 213.56 166.84V165.65ZM223.355 162.99H222.193V165.16C222.193 165.636 222.193 166.28 222.207 166.784C221.787 166.098 220.989 165.454 219.631 165.454C217.699 165.454 216.271 167.05 216.271 169.318C216.271 171.768 217.713 173.182 219.715 173.182C220.989 173.182 221.843 172.538 222.277 171.88V173H223.355V162.99ZM219.883 172.244C218.371 172.244 217.531 171.096 217.531 169.318C217.531 167.61 218.385 166.406 219.883 166.406C221.409 166.406 222.221 167.61 222.221 169.318C222.221 171.096 221.409 172.244 219.883 172.244ZM229.209 166.518V171.306C229.209 172.72 230.007 173.14 231.225 173.14C231.351 173.14 231.491 173.126 231.617 173.112V172.244C231.505 172.258 231.463 172.258 231.393 172.258C230.707 172.258 230.357 171.95 230.357 171.208V166.518H231.757V165.65H230.357V163.662H229.209V165.65H228.075V166.518H229.209ZM236.305 172.244C234.695 172.244 233.799 171.068 233.799 169.318C233.799 167.624 234.709 166.392 236.305 166.392C237.887 166.392 238.797 167.624 238.797 169.318C238.797 171.068 237.901 172.244 236.305 172.244ZM236.305 173.182C238.657 173.182 240.057 171.586 240.057 169.332C240.057 167.092 238.615 165.454 236.333 165.454C234.037 165.454 232.609 167.092 232.609 169.332C232.609 171.586 233.953 173.182 236.305 173.182ZM244.719 170.774C245.027 172.468 246.161 173.168 247.771 173.168C249.437 173.168 250.627 172.342 250.627 170.9C250.627 169.738 249.801 169.248 248.541 168.884L247.617 168.618C246.679 168.352 246.147 168.086 246.147 167.428C246.147 166.826 246.679 166.364 247.687 166.364C248.653 166.364 249.185 166.854 249.395 167.582H250.487C250.263 166.098 249.199 165.454 247.715 165.454C246.119 165.454 244.985 166.266 244.985 167.582C244.985 168.842 245.895 169.276 247.071 169.598L247.939 169.836C248.891 170.102 249.493 170.312 249.493 171.04C249.493 171.768 248.807 172.258 247.799 172.258C246.693 172.258 246.119 171.712 245.853 170.774H244.719ZM258.972 169.514C258.972 169.472 258.986 169.402 258.986 169.262C258.986 167.302 257.922 165.454 255.5 165.454C253.274 165.454 251.804 167.036 251.804 169.346C251.804 171.572 253.176 173.182 255.486 173.182C257.166 173.182 258.356 172.202 258.818 170.914H257.642C257.292 171.614 256.62 172.244 255.514 172.244C254.016 172.244 253.05 171.25 252.966 169.514H258.972ZM253.022 168.646C253.204 167.288 254.072 166.364 255.472 166.364C256.914 166.364 257.628 167.316 257.768 168.646H253.022ZM267.271 169.514C267.271 169.472 267.285 169.402 267.285 169.262C267.285 167.302 266.221 165.454 263.799 165.454C261.573 165.454 260.103 167.036 260.103 169.346C260.103 171.572 261.475 173.182 263.785 173.182C265.465 173.182 266.655 172.202 267.117 170.914H265.941C265.591 171.614 264.919 172.244 263.813 172.244C262.315 172.244 261.349 171.25 261.265 169.514H267.271ZM261.321 168.646C261.503 167.288 262.371 166.364 263.771 166.364C265.213 166.364 265.927 167.316 266.067 168.646H261.321ZM273.608 164.404V162.99H272.418V164.404H273.608ZM272.446 165.65V173H273.58V165.65H272.446ZM276.035 166.518V171.306C276.035 172.72 276.833 173.14 278.051 173.14C278.177 173.14 278.317 173.126 278.443 173.112V172.244C278.331 172.258 278.289 172.258 278.219 172.258C277.533 172.258 277.183 171.95 277.183 171.208V166.518H278.583V165.65H277.183V163.662H276.035V165.65H274.901V166.518H276.035ZM283.604 173H284.766V162.99H283.604V173ZM288.141 164.404V162.99H286.951V164.404H288.141ZM286.979 165.65V173H288.113V165.65H286.979ZM292.178 173H293.522L296.322 165.65H295.132L293.83 169.36C293.48 170.396 293.256 170.886 292.934 171.908H292.906C292.57 170.844 292.416 170.494 292.094 169.528L290.75 165.65H289.448C290.344 168.002 291.296 170.62 292.178 173ZM304.089 169.514C304.089 169.472 304.103 169.402 304.103 169.262C304.103 167.302 303.039 165.454 300.617 165.454C298.391 165.454 296.921 167.036 296.921 169.346C296.921 171.572 298.293 173.182 300.603 173.182C302.283 173.182 303.473 172.202 303.935 170.914H302.759C302.409 171.614 301.737 172.244 300.631 172.244C299.133 172.244 298.167 171.25 298.083 169.514H304.089ZM298.139 168.646C298.321 167.288 299.189 166.364 300.589 166.364C302.031 166.364 302.745 167.316 302.885 168.646H298.139Z" fill="#777E8B"/>
<path d="M127.288 151H129.272V146.04C129.272 145.032 129.256 142.952 129.256 142.328H129.272C129.448 142.648 129.992 143.544 130.68 144.728L134.36 151H136.776V139.56H134.84V145.208C134.84 146.312 134.856 147.576 134.856 148.232L134.84 148.248C134.536 147.72 133.976 146.792 133.592 146.12L129.784 139.56H127.288V151ZM142.918 142.312C140.278 142.312 138.534 144.168 138.534 146.808C138.534 149.384 140.182 151.256 142.886 151.256C145.606 151.256 147.318 149.4 147.318 146.808C147.318 144.168 145.574 142.312 142.918 142.312ZM142.886 143.944C144.358 143.944 145.254 145.128 145.254 146.792C145.254 148.504 144.374 149.624 142.886 149.624C141.414 149.624 140.534 148.504 140.534 146.792C140.534 145.128 141.43 143.944 142.886 143.944ZM154.712 142.6H152.872V153.88H154.824V151.512C154.824 150.952 154.824 150.456 154.792 149.864H154.808C155.272 150.552 156.232 151.192 157.544 151.192C159.96 151.192 161.48 149.32 161.48 146.776C161.48 144.152 159.896 142.328 157.592 142.328C156.12 142.328 155.176 143 154.712 143.72V142.6ZM157.144 143.928C158.616 143.928 159.48 145.144 159.48 146.744C159.48 148.344 158.616 149.592 157.144 149.592C155.736 149.592 154.728 148.424 154.728 146.808C154.728 145.16 155.624 143.928 157.144 143.928ZM163.152 142.6V151H165.104V142.6H163.152ZM163.12 141.384H165.12V139.56H163.12V141.384ZM169.131 142.584H167.259C167.275 143.016 167.275 143.432 167.275 143.864V151H169.227V146.312C169.227 145 169.803 143.96 171.131 143.96C172.443 143.96 172.843 145.016 172.843 146.664V151H174.795V145.784C174.795 143.624 173.675 142.328 171.755 142.328C170.459 142.328 169.643 142.888 169.131 143.656C169.115 143.656 169.115 143.656 169.115 143.64C169.131 143.464 169.131 143.288 169.131 143.112V142.584ZM176.899 151H178.755V150.424C178.755 150.232 178.739 150.024 178.739 149.816C179.235 150.552 180.195 151.192 181.635 151.192C183.939 151.192 185.523 149.4 185.523 146.776C185.523 144.232 184.003 142.328 181.587 142.328C180.275 142.328 179.315 142.984 178.835 143.672C178.851 143.08 178.851 142.584 178.851 142.008V139.56H176.899V151ZM181.187 143.944C182.659 143.944 183.523 145.208 183.523 146.808C183.523 148.408 182.659 149.608 181.187 149.608C179.667 149.608 178.771 148.392 178.771 146.744C178.771 145.128 179.779 143.944 181.187 143.944ZM191.05 142.312C188.41 142.312 186.666 144.168 186.666 146.808C186.666 149.384 188.314 151.256 191.018 151.256C193.738 151.256 195.45 149.4 195.45 146.808C195.45 144.168 193.706 142.312 191.05 142.312ZM191.018 143.944C192.49 143.944 193.386 145.128 193.386 146.792C193.386 148.504 192.506 149.624 191.018 149.624C189.546 149.624 188.666 148.504 188.666 146.792C188.666 145.128 189.562 143.944 191.018 143.944ZM198.762 145.224C198.858 144.408 199.354 143.848 200.458 143.848C201.562 143.848 202.058 144.376 202.09 145.768C201.546 145.816 200.874 145.896 200.154 145.992C198.378 146.248 196.506 146.904 196.506 148.664C196.506 150.248 197.754 151.16 199.498 151.16C200.858 151.16 201.818 150.568 202.282 149.88C202.282 150.376 202.33 150.76 202.378 151H204.17C204.042 150.392 203.978 149.56 203.978 148.392V146.04C203.978 143.176 202.554 142.328 200.506 142.328C198.314 142.328 196.986 143.592 196.906 145.224H198.762ZM202.106 147.48C202.106 148.904 201.45 149.768 200.042 149.768C199.162 149.768 198.586 149.384 198.586 148.616C198.586 147.72 199.562 147.4 201.69 147.176L202.122 147.128C202.106 147.288 202.106 147.464 202.106 147.48ZM206.05 142.584C206.066 143.096 206.066 143.576 206.066 144.104V151H208.018V147.032C208.018 145.304 208.29 144.216 209.81 144.216C210.002 144.216 210.226 144.232 210.37 144.28V142.424C210.258 142.408 210.114 142.392 209.906 142.392C208.946 142.392 208.162 142.872 207.874 143.72C207.89 143.544 207.89 143.352 207.89 143.16V142.584H206.05ZM219.707 151V139.56H217.755V142.008C217.755 142.584 217.755 143.08 217.771 143.672C217.307 142.984 216.347 142.328 215.019 142.328C212.619 142.328 211.099 144.232 211.099 146.776C211.099 149.4 212.683 151.192 214.971 151.192C216.411 151.192 217.387 150.552 217.867 149.816V151H219.707ZM215.435 143.944C216.843 143.944 217.851 145.128 217.851 146.744C217.851 148.392 216.939 149.608 215.419 149.608C213.963 149.608 213.099 148.408 213.099 146.808C213.099 145.208 213.963 143.944 215.435 143.944ZM225.124 148.344C225.444 150.312 226.676 151.256 228.756 151.256C230.708 151.256 232.1 150.152 232.1 148.488C232.1 147.048 231.252 146.472 229.524 146.008L228.596 145.768C227.748 145.544 227.3 145.352 227.3 144.808C227.3 144.296 227.732 143.88 228.596 143.88C229.428 143.88 229.988 144.264 230.228 144.952H231.956C231.812 143.288 230.452 142.328 228.644 142.328C226.772 142.328 225.412 143.384 225.412 144.92C225.412 146.456 226.5 147.032 227.86 147.4L228.788 147.656C229.652 147.896 230.276 148.056 230.276 148.648C230.276 149.288 229.62 149.688 228.788 149.688C227.828 149.688 227.188 149.176 226.964 148.344H225.124ZM241.588 147.288C241.588 147.256 241.604 147.048 241.604 146.76C241.588 144.312 240.18 142.312 237.492 142.312C234.932 142.312 233.204 144.216 233.204 146.776C233.204 149.4 234.9 151.256 237.524 151.256C239.556 151.256 240.948 150.136 241.46 148.6H239.492C239.14 149.24 238.516 149.64 237.572 149.64C236.212 149.64 235.284 148.648 235.156 147.272L241.588 147.288ZM235.22 145.88C235.38 144.552 236.26 143.832 237.476 143.832C238.724 143.832 239.524 144.728 239.652 145.88H235.22ZM243.216 151H245.168V139.56H243.216V151ZM255.241 147.288C255.241 147.256 255.257 147.048 255.257 146.76C255.241 144.312 253.833 142.312 251.145 142.312C248.585 142.312 246.857 144.216 246.857 146.776C246.857 149.4 248.553 151.256 251.177 151.256C253.209 151.256 254.601 150.136 255.113 148.6H253.145C252.793 149.24 252.169 149.64 251.225 149.64C249.865 149.64 248.937 148.648 248.809 147.272L255.241 147.288ZM248.873 145.88C249.033 144.552 249.913 143.832 251.129 143.832C252.377 143.832 253.177 144.728 253.305 145.88H248.873ZM262.613 148.312C262.293 149.112 261.621 149.64 260.661 149.64C259.173 149.64 258.293 148.488 258.293 146.76C258.293 145.128 259.173 143.944 260.581 143.944C261.589 143.944 262.181 144.504 262.517 145.384H264.549C264.149 143.592 262.789 142.312 260.613 142.312C258.005 142.312 256.293 144.232 256.293 146.792C256.293 149.368 257.925 151.256 260.581 151.256C262.741 151.256 264.069 149.992 264.533 148.312H262.613ZM268.453 140.328H266.501V142.6H265.237V144.056H266.501V148.984C266.501 150.648 267.525 151.16 269.109 151.16C269.461 151.16 269.701 151.128 269.861 151.096V149.656C269.781 149.672 269.637 149.688 269.461 149.688C268.821 149.688 268.453 149.432 268.453 148.648V144.056H270.021V142.6H268.453V140.328ZM279.268 147.288C279.268 147.256 279.284 147.048 279.284 146.76C279.268 144.312 277.86 142.312 275.172 142.312C272.612 142.312 270.884 144.216 270.884 146.776C270.884 149.4 272.58 151.256 275.204 151.256C277.236 151.256 278.628 150.136 279.14 148.6H277.172C276.82 149.24 276.196 149.64 275.252 149.64C273.892 149.64 272.964 148.648 272.836 147.272L279.268 147.288ZM272.9 145.88C273.06 144.552 273.94 143.832 275.156 143.832C276.404 143.832 277.204 144.728 277.332 145.88H272.9ZM288.944 151V139.56H286.992V142.008C286.992 142.584 286.992 143.08 287.008 143.672C286.544 142.984 285.584 142.328 284.256 142.328C281.856 142.328 280.336 144.232 280.336 146.776C280.336 149.4 281.92 151.192 284.208 151.192C285.648 151.192 286.624 150.552 287.104 149.816V151H288.944ZM284.672 143.944C286.08 143.944 287.088 145.128 287.088 146.744C287.088 148.392 286.176 149.608 284.656 149.608C283.2 149.608 282.336 148.408 282.336 146.808C282.336 145.208 283.2 143.944 284.672 143.944Z" fill="#777E8B"/>
<path fill-rule="evenodd" clip-rule="evenodd" d="M208.453 100.079C231.035 100.079 249.343 81.7718 249.343 59.1889C249.343 36.6059 231.035 18.2988 208.453 18.2988C185.87 18.2988 167.562 36.6059 167.562 59.1889C167.562 81.7718 185.87 100.079 208.453 100.079ZM210.995 49.4437C216.963 49.4437 225.736 55.4941 225.736 64.5698H190.326C190.326 55.4941 199.296 49.4437 205.093 49.4437V43.3932C202.002 42.1486 199.097 38.6969 199.296 34.3176H216.963C217.184 38.7891 214.197 42.1716 210.995 43.3932V49.4437ZM205.093 67.595H210.995V79.6959L208.044 85.7463L205.093 79.6959V67.595Z" fill="#C0C6CF"/>
<path fill-rule="evenodd" clip-rule="evenodd" d="M267.006 27.0504C266.936 28.0681 266.805 29.0689 266.617 30.0494H217.562C217.373 29.0689 217.242 28.0681 217.172 27.0504H267.006ZM220.039 37.0486C219.525 36.0848 219.072 35.0833 218.685 34.0494H265.493C265.107 35.0833 264.654 36.0848 264.139 37.0486H220.039ZM222.697 41.0486C223.573 42.1265 224.537 43.1299 225.579 44.0479H258.6C259.641 43.1299 260.605 42.1265 261.481 41.0486H222.697ZM242.089 50.2826C238.401 50.2826 234.899 49.483 231.748 48.0479H252.431C249.279 49.483 245.778 50.2826 242.089 50.2826ZM217.212 23.0504C217.303 22.0318 217.456 21.0308 217.665 20.0512H266.513C266.723 21.0308 266.875 22.0318 266.966 23.0504H217.212ZM265.296 16.0512H218.882C219.296 15.0155 219.776 14.0141 220.319 13.0522H263.86C264.402 14.0141 264.883 15.0155 265.296 16.0512ZM261.056 9.0522C260.126 7.9678 259.104 6.96409 258.003 6.053H226.175C225.074 6.96409 224.053 7.9678 223.123 9.0522H261.056ZM251.229 2.053H232.949C235.78 0.93946 238.863 0.327881 242.089 0.327881C245.315 0.327881 248.398 0.93946 251.229 2.053Z" fill="#747E8C"/>
<mask id="mask0" mask-type="alpha" maskUnits="userSpaceOnUse" x="167" y="18" width="83" height="83">
<circle cx="208.453" cy="59.1889" r="40.89" fill="#C0C6CF"/>
</mask>
<g mask="url(#mask0)">
<path fill-rule="evenodd" clip-rule="evenodd" d="M267.006 27.0504C266.936 28.068 266.805 29.0689 266.617 30.0493H217.562C217.373 29.0689 217.242 28.068 217.172 27.0504H267.006ZM220.039 37.0486C219.525 36.0848 219.072 35.0833 218.685 34.0493H265.493C265.107 35.0833 264.654 36.0848 264.139 37.0486H220.039ZM222.697 41.0486C223.573 42.1265 224.537 43.1299 225.579 44.0479H258.6C259.641 43.1299 260.605 42.1265 261.481 41.0486H222.697ZM242.089 50.2826C238.401 50.2826 234.899 49.483 231.748 48.0479H252.431C249.279 49.483 245.778 50.2826 242.089 50.2826ZM217.212 23.0504C217.303 22.0318 217.456 21.0309 217.665 20.0512H266.513C266.723 21.0309 266.875 22.0318 266.966 23.0504H217.212ZM218.882 16.0512C219.296 15.0155 219.776 14.0141 220.319 13.0521H263.86C264.402 14.0141 264.883 15.0155 265.296 16.0512H218.882ZM261.056 9.05215C260.126 7.96777 259.104 6.96407 258.003 6.053H226.175C225.074 6.96407 224.053 7.96777 223.123 9.05215H261.056ZM242.089 0.327881C245.315 0.327881 248.398 0.93946 251.229 2.053H232.949C235.78 0.93946 238.863 0.327881 242.089 0.327881Z" fill="white"/>
</g>
<circle cx="151.732" cy="75.8583" r="1.07139" fill="#777E8B"/>
<circle cx="156.364" cy="75.8575" r="1.07139" fill="#777E8B"/>
<circle cx="160.997" cy="75.8575" r="1.07139" fill="#777E8B"/>
<circle cx="165.63" cy="75.8575" r="1.07139" fill="#777E8B"/>
<circle cx="170.263" cy="75.8575" r="1.07139" fill="#777E8B"/>
<circle cx="151.732" cy="80.4903" r="1.07139" fill="#777E8B"/>
<circle cx="156.364" cy="80.4903" r="1.07139" fill="#777E8B"/>
<circle cx="160.997" cy="80.4903" r="1.07139" fill="#777E8B"/>
<circle cx="165.63" cy="80.4903" r="1.07139" fill="#777E8B"/>
<circle cx="170.263" cy="80.4903" r="1.07139" fill="#777E8B"/>
<circle cx="151.732" cy="85.1236" r="1.07139" fill="#777E8B"/>
<circle cx="156.364" cy="85.1236" r="1.07139" fill="#777E8B"/>
<circle cx="160.997" cy="85.1236" r="1.07139" fill="#777E8B"/>
<circle cx="165.63" cy="85.1236" r="1.07139" fill="#777E8B"/>
<circle cx="170.263" cy="85.1236" r="1.07139" fill="#777E8B"/>
<circle cx="151.732" cy="89.7565" r="1.07139" fill="#777E8B"/>
<circle cx="156.364" cy="89.7565" r="1.07139" fill="#777E8B"/>
<circle cx="160.997" cy="89.7565" r="1.07139" fill="#777E8B"/>
<circle cx="165.63" cy="89.7565" r="1.07139" fill="#777E8B"/>
<circle cx="170.263" cy="89.7565" r="1.07139" fill="#777E8B"/>
<circle cx="151.732" cy="94.0033" r="1.07139" fill="#777E8B"/>
<circle cx="156.364" cy="94.0033" r="1.07139" fill="#777E8B"/>
<circle cx="160.997" cy="94.0033" r="1.07139" fill="#777E8B"/>
<circle cx="165.63" cy="94.0033" r="1.07139" fill="#777E8B"/>
<circle cx="170.263" cy="94.0033" r="1.07139" fill="#777E8B"/>
<circle cx="151.732" cy="98.6756" r="1.07139" fill="#777E8B"/>
<circle cx="156.364" cy="98.6752" r="1.07139" fill="#777E8B"/>
<circle cx="160.997" cy="98.6752" r="1.07139" fill="#777E8B"/>
<circle cx="165.63" cy="98.6752" r="1.07139" fill="#777E8B"/>
<circle cx="170.263" cy="98.6752" r="1.07139" fill="#777E8B"/>
<circle cx="151.732" cy="103.308" r="1.07139" fill="#777E8B"/>
<circle cx="156.364" cy="103.308" r="1.07139" fill="#777E8B"/>
<circle cx="160.997" cy="103.308" r="1.07139" fill="#777E8B"/>
<circle cx="165.63" cy="103.308" r="1.07139" fill="#777E8B"/>
<circle cx="170.263" cy="103.308" r="1.07139" fill="#777E8B"/>
<circle cx="151.732" cy="107.942" r="1.07139" fill="#777E8B"/>
<circle cx="156.364" cy="107.942" r="1.07139" fill="#777E8B"/>
<circle cx="160.997" cy="107.942" r="1.07139" fill="#777E8B"/>
<circle cx="165.63" cy="107.942" r="1.07139" fill="#777E8B"/>
<circle cx="170.263" cy="107.942" r="1.07139" fill="#777E8B"/>
<circle cx="151.732" cy="112.574" r="1.07139" fill="#777E8B"/>
<circle cx="156.364" cy="112.574" r="1.07139" fill="#777E8B"/>
<circle cx="160.997" cy="112.574" r="1.07139" fill="#777E8B"/>
<circle cx="165.63" cy="112.574" r="1.07139" fill="#777E8B"/>
<circle cx="170.263" cy="112.574" r="1.07139" fill="#777E8B"/>
<circle cx="151.732" cy="116.821" r="1.07139" fill="#777E8B"/>
<circle cx="156.364" cy="116.821" r="1.07139" fill="#777E8B"/>
<circle cx="160.997" cy="116.821" r="1.07139" fill="#777E8B"/>
<circle cx="165.63" cy="116.821" r="1.07139" fill="#777E8B"/>
<circle cx="170.263" cy="116.821" r="1.07139" fill="#777E8B"/>
<circle cx="174.935" cy="75.858" r="1.07139" fill="#777E8B"/>
<circle cx="179.567" cy="75.8575" r="1.07139" fill="#777E8B"/>
<circle cx="184.2" cy="75.8575" r="1.07139" fill="#777E8B"/>
<circle cx="188.833" cy="75.8575" r="1.07139" fill="#777E8B"/>
<circle cx="193.466" cy="75.8575" r="1.07139" fill="#777E8B"/>
<circle cx="174.935" cy="80.4903" r="1.07139" fill="#777E8B"/>
<circle cx="179.567" cy="80.4903" r="1.07139" fill="#777E8B"/>
<circle cx="184.2" cy="80.4903" r="1.07139" fill="#777E8B"/>
<circle cx="188.833" cy="80.4903" r="1.07139" fill="#777E8B"/>
<circle cx="193.466" cy="80.4903" r="1.07139" fill="#777E8B"/>
<circle cx="174.935" cy="85.1236" r="1.07139" fill="#777E8B"/>
<circle cx="179.567" cy="85.1236" r="1.07139" fill="#777E8B"/>
<circle cx="184.2" cy="85.1236" r="1.07139" fill="#777E8B"/>
<circle cx="188.833" cy="85.1236" r="1.07139" fill="#777E8B"/>
<circle cx="193.466" cy="85.1236" r="1.07139" fill="#777E8B"/>
<circle cx="174.935" cy="89.7565" r="1.07139" fill="#777E8B"/>
<circle cx="179.567" cy="89.7565" r="1.07139" fill="#777E8B"/>
<circle cx="184.2" cy="89.7565" r="1.07139" fill="#777E8B"/>
<circle cx="188.833" cy="89.7565" r="1.07139" fill="#777E8B"/>
<circle cx="193.466" cy="89.7565" r="1.07139" fill="#777E8B"/>
<circle cx="174.935" cy="94.0033" r="1.07139" fill="#777E8B"/>
<circle cx="179.567" cy="94.0033" r="1.07139" fill="#777E8B"/>
<circle cx="184.2" cy="94.0033" r="1.07139" fill="#777E8B"/>
<circle cx="188.833" cy="94.0033" r="1.07139" fill="#777E8B"/>
<circle cx="193.466" cy="94.0033" r="1.07139" fill="#777E8B"/>
<circle cx="174.935" cy="98.6764" r="1.07139" fill="#777E8B"/>
<circle cx="179.567" cy="98.6756" r="1.07139" fill="#777E8B"/>
<circle cx="184.2" cy="98.6756" r="1.07139" fill="#777E8B"/>
<circle cx="188.833" cy="98.6756" r="1.07139" fill="#777E8B"/>
<circle cx="193.466" cy="98.6756" r="1.07139" fill="#777E8B"/>
<circle cx="174.935" cy="103.308" r="1.07139" fill="#777E8B"/>
<circle cx="179.567" cy="103.308" r="1.07139" fill="#777E8B"/>
<circle cx="184.2" cy="103.308" r="1.07139" fill="#777E8B"/>
<circle cx="188.833" cy="103.308" r="1.07139" fill="#777E8B"/>
<circle cx="193.466" cy="103.308" r="1.07139" fill="#777E8B"/>
<circle cx="174.935" cy="107.942" r="1.07139" fill="#777E8B"/>
<circle cx="179.567" cy="107.942" r="1.07139" fill="#777E8B"/>
<circle cx="184.2" cy="107.942" r="1.07139" fill="#777E8B"/>
<circle cx="188.833" cy="107.942" r="1.07139" fill="#777E8B"/>
<circle cx="193.466" cy="107.942" r="1.07139" fill="#777E8B"/>
<circle cx="174.935" cy="112.575" r="1.07139" fill="#777E8B"/>
<circle cx="179.567" cy="112.575" r="1.07139" fill="#777E8B"/>
<circle cx="184.2" cy="112.575" r="1.07139" fill="#777E8B"/>
<circle cx="188.833" cy="112.575" r="1.07139" fill="#777E8B"/>
<circle cx="193.466" cy="112.575" r="1.07139" fill="#777E8B"/>
<circle cx="174.935" cy="116.822" r="1.07139" fill="#777E8B"/>
<circle cx="179.567" cy="116.822" r="1.07139" fill="#777E8B"/>
<circle cx="184.2" cy="116.822" r="1.07139" fill="#777E8B"/>
<circle cx="188.833" cy="116.822" r="1.07139" fill="#777E8B"/>
<circle cx="193.466" cy="116.822" r="1.07139" fill="#777E8B"/>
</svg>
