<svg width="416" height="199" viewBox="0 0 416 199" fill="none" xmlns="http://www.w3.org/2000/svg">
<path d="M100.775 170.158C100.985 172.118 102.399 173.196 104.499 173.196C106.641 173.196 108.097 172.104 108.097 170.256C108.097 168.604 106.837 167.96 105.199 167.442L104.513 167.204C103.183 166.756 102.371 166.35 102.371 165.286C102.371 164.32 103.155 163.732 104.457 163.732C105.745 163.732 106.515 164.334 106.739 165.58H107.901C107.719 163.788 106.529 162.794 104.499 162.794C102.399 162.794 101.139 163.844 101.139 165.412C101.139 166.938 102.189 167.68 103.925 168.226L104.527 168.422C105.773 168.814 106.851 169.22 106.851 170.41C106.851 171.53 105.969 172.244 104.527 172.244C103.029 172.244 102.161 171.474 101.965 170.158H100.775ZM116.477 169.514C116.477 169.472 116.491 169.402 116.491 169.262C116.491 167.302 115.427 165.454 113.005 165.454C110.779 165.454 109.309 167.036 109.309 169.346C109.309 171.572 110.681 173.182 112.991 173.182C114.671 173.182 115.861 172.202 116.323 170.914H115.147C114.797 171.614 114.125 172.244 113.019 172.244C111.521 172.244 110.555 171.25 110.471 169.514H116.477ZM110.527 168.646C110.709 167.288 111.577 166.364 112.977 166.364C114.419 166.364 115.133 167.316 115.273 168.646H110.527ZM118.14 173H119.302V162.99H118.14V173ZM128.208 169.514C128.208 169.472 128.222 169.402 128.222 169.262C128.222 167.302 127.158 165.454 124.736 165.454C122.51 165.454 121.04 167.036 121.04 169.346C121.04 171.572 122.412 173.182 124.722 173.182C126.402 173.182 127.592 172.202 128.054 170.914H126.878C126.528 171.614 125.856 172.244 124.75 172.244C123.252 172.244 122.285 171.25 122.202 169.514H128.208ZM122.258 168.646C122.44 167.288 123.308 166.364 124.708 166.364C126.15 166.364 126.864 167.316 127.004 168.646H122.258ZM135.302 170.676C134.924 171.558 134.28 172.244 133.02 172.244C131.396 172.244 130.528 171.082 130.528 169.318C130.528 167.624 131.452 166.392 133.02 166.392C134.322 166.392 134.98 167.176 135.302 168.044H136.45C136.058 166.602 134.994 165.454 133.02 165.454C130.85 165.454 129.338 166.98 129.338 169.304C129.338 171.67 130.766 173.182 133.006 173.182C134.882 173.182 136.016 172.076 136.436 170.676H135.302ZM138.339 166.518V171.306C138.339 172.72 139.137 173.14 140.355 173.14C140.481 173.14 140.621 173.126 140.747 173.112V172.244C140.635 172.258 140.593 172.258 140.523 172.258C139.837 172.258 139.487 171.95 139.487 171.208V166.518H140.887V165.65H139.487V163.662H138.339V165.65H137.205V166.518H138.339ZM145.655 167.876H146.761C146.859 166.938 147.391 166.364 148.567 166.364C149.813 166.364 150.359 166.994 150.359 168.562C149.771 168.604 149.029 168.702 148.427 168.8C146.635 169.08 145.319 169.598 145.319 171.026C145.319 172.37 146.397 173.14 147.895 173.14C149.225 173.14 149.967 172.608 150.429 171.866C150.429 172.356 150.471 172.692 150.527 173H151.591C151.493 172.664 151.451 172.16 151.451 171.544V169.738C151.451 169.402 151.465 168.926 151.465 168.632C151.465 166.35 150.527 165.454 148.623 165.454C146.845 165.454 145.655 166.504 145.655 167.876ZM150.373 169.738C150.373 171.432 149.589 172.328 148.175 172.328C147.181 172.328 146.537 171.838 146.537 171.012C146.537 169.962 147.671 169.766 149.771 169.458L150.387 169.374C150.373 169.444 150.373 169.528 150.373 169.738ZM158.611 173H159.955L162.755 165.65H161.565L160.263 169.36C159.913 170.396 159.689 170.886 159.367 171.908H159.339C159.003 170.844 158.849 170.494 158.527 169.528L157.183 165.65H155.881C156.777 168.002 157.729 170.62 158.611 173ZM165.224 164.404V162.99H164.034V164.404H165.224ZM164.062 165.65V173H165.196V165.65H164.062ZM166.769 170.774C167.077 172.468 168.211 173.168 169.821 173.168C171.487 173.168 172.677 172.342 172.677 170.9C172.677 169.738 171.851 169.248 170.591 168.884L169.667 168.618C168.729 168.352 168.197 168.086 168.197 167.428C168.197 166.826 168.729 166.364 169.737 166.364C170.703 166.364 171.235 166.854 171.445 167.582H172.537C172.313 166.098 171.249 165.454 169.765 165.454C168.169 165.454 167.035 166.266 167.035 167.582C167.035 168.842 167.945 169.276 169.121 169.598L169.989 169.836C170.941 170.102 171.543 170.312 171.543 171.04C171.543 171.768 170.857 172.258 169.849 172.258C168.743 172.258 168.169 171.712 167.903 170.774H166.769ZM180.182 165.65H179.02V170.074C179.02 171.236 178.39 172.258 177.186 172.258C175.94 172.258 175.408 171.334 175.408 169.892V165.65H174.246V170.242C174.246 172.104 175.044 173.196 176.738 173.196C178.012 173.196 178.698 172.58 179.048 171.992V173H180.196C180.182 172.622 180.182 172.258 180.182 171.88V165.65ZM182.146 167.876H183.252C183.35 166.938 183.882 166.364 185.058 166.364C186.304 166.364 186.85 166.994 186.85 168.562C186.262 168.604 185.52 168.702 184.918 168.8C183.126 169.08 181.81 169.598 181.81 171.026C181.81 172.37 182.888 173.14 184.386 173.14C185.716 173.14 186.458 172.608 186.92 171.866C186.92 172.356 186.962 172.692 187.018 173H188.082C187.984 172.664 187.942 172.16 187.942 171.544V169.738C187.942 169.402 187.956 168.926 187.956 168.632C187.956 166.35 187.018 165.454 185.114 165.454C183.336 165.454 182.146 166.504 182.146 167.876ZM186.864 169.738C186.864 171.432 186.08 172.328 184.666 172.328C183.672 172.328 183.028 171.838 183.028 171.012C183.028 169.962 184.162 169.766 186.262 169.458L186.878 169.374C186.864 169.444 186.864 169.528 186.864 169.738ZM190.068 173H191.23V162.99H190.068V173ZM194.605 164.404V162.99H193.415V164.404H194.605ZM193.443 165.65V173H194.577V165.65H193.443ZM196.164 173H202.016V172.076H199.594C198.964 172.076 198.012 172.09 197.48 172.09L198.838 170.424L201.946 166.588V165.65H196.304V166.574H198.446C199.006 166.574 200.112 166.574 200.616 166.56C200.42 166.826 199.93 167.428 199.398 168.086L196.164 172.132V173ZM203.446 167.876H204.552C204.65 166.938 205.182 166.364 206.358 166.364C207.604 166.364 208.15 166.994 208.15 168.562C207.562 168.604 206.82 168.702 206.218 168.8C204.426 169.08 203.11 169.598 203.11 171.026C203.11 172.37 204.188 173.14 205.686 173.14C207.016 173.14 207.758 172.608 208.22 171.866C208.22 172.356 208.262 172.692 208.318 173H209.382C209.284 172.664 209.242 172.16 209.242 171.544V169.738C209.242 169.402 209.256 168.926 209.256 168.632C209.256 166.35 208.318 165.454 206.414 165.454C204.636 165.454 203.446 166.504 203.446 167.876ZM208.164 169.738C208.164 171.432 207.38 172.328 205.966 172.328C204.972 172.328 204.328 171.838 204.328 171.012C204.328 169.962 205.462 169.766 207.562 169.458L208.178 169.374C208.164 169.444 208.164 169.528 208.164 169.738ZM211.606 166.518V171.306C211.606 172.72 212.404 173.14 213.622 173.14C213.748 173.14 213.888 173.126 214.014 173.112V172.244C213.902 172.258 213.86 172.258 213.79 172.258C213.104 172.258 212.754 171.95 212.754 171.208V166.518H214.154V165.65H212.754V163.662H211.606V165.65H210.472V166.518H211.606ZM216.713 164.404V162.99H215.523V164.404H216.713ZM215.551 165.65V173H216.685V165.65H215.551ZM222.066 172.244C220.456 172.244 219.56 171.068 219.56 169.318C219.56 167.624 220.47 166.392 222.066 166.392C223.648 166.392 224.558 167.624 224.558 169.318C224.558 171.068 223.662 172.244 222.066 172.244ZM222.066 173.182C224.418 173.182 225.818 171.586 225.818 169.332C225.818 167.092 224.376 165.454 222.094 165.454C219.798 165.454 218.37 167.092 218.37 169.332C218.37 171.586 219.714 173.182 222.066 173.182ZM227.5 173H228.662V168.59C228.662 167.4 229.348 166.392 230.58 166.392C231.84 166.392 232.386 167.302 232.386 168.772V173H233.548V168.408C233.548 166.546 232.708 165.454 231.028 165.454C229.768 165.454 229.012 166.084 228.634 166.7V165.65H227.486C227.5 165.986 227.5 166.42 227.5 166.756V173ZM239.319 166.518V171.306C239.319 172.72 240.117 173.14 241.335 173.14C241.461 173.14 241.601 173.126 241.727 173.112V172.244C241.615 172.258 241.573 172.258 241.503 172.258C240.817 172.258 240.467 171.95 240.467 171.208V166.518H241.867V165.65H240.467V163.662H239.319V165.65H238.185V166.518H239.319ZM246.415 172.244C244.805 172.244 243.909 171.068 243.909 169.318C243.909 167.624 244.819 166.392 246.415 166.392C247.997 166.392 248.907 167.624 248.907 169.318C248.907 171.068 248.011 172.244 246.415 172.244ZM246.415 173.182C248.767 173.182 250.167 171.586 250.167 169.332C250.167 167.092 248.725 165.454 246.443 165.454C244.147 165.454 242.719 167.092 242.719 169.332C242.719 171.586 244.063 173.182 246.415 173.182ZM254.83 170.774C255.138 172.468 256.272 173.168 257.882 173.168C259.548 173.168 260.738 172.342 260.738 170.9C260.738 169.738 259.912 169.248 258.652 168.884L257.728 168.618C256.79 168.352 256.258 168.086 256.258 167.428C256.258 166.826 256.79 166.364 257.798 166.364C258.764 166.364 259.296 166.854 259.506 167.582H260.598C260.374 166.098 259.31 165.454 257.826 165.454C256.23 165.454 255.096 166.266 255.096 167.582C255.096 168.842 256.006 169.276 257.182 169.598L258.05 169.836C259.002 170.102 259.604 170.312 259.604 171.04C259.604 171.768 258.918 172.258 257.91 172.258C256.804 172.258 256.23 171.712 255.964 170.774H254.83ZM269.083 169.514C269.083 169.472 269.097 169.402 269.097 169.262C269.097 167.302 268.033 165.454 265.611 165.454C263.385 165.454 261.915 167.036 261.915 169.346C261.915 171.572 263.287 173.182 265.597 173.182C267.277 173.182 268.467 172.202 268.929 170.914H267.753C267.403 171.614 266.731 172.244 265.625 172.244C264.127 172.244 263.16 171.25 263.077 169.514H269.083ZM263.133 168.646C263.315 167.288 264.183 166.364 265.583 166.364C267.025 166.364 267.739 167.316 267.879 168.646H263.133ZM277.381 169.514C277.381 169.472 277.395 169.402 277.395 169.262C277.395 167.302 276.331 165.454 273.909 165.454C271.683 165.454 270.213 167.036 270.213 169.346C270.213 171.572 271.585 173.182 273.895 173.182C275.575 173.182 276.765 172.202 277.227 170.914H276.051C275.701 171.614 275.029 172.244 273.923 172.244C272.425 172.244 271.459 171.25 271.375 169.514H277.381ZM271.431 168.646C271.613 167.288 272.481 166.364 273.881 166.364C275.323 166.364 276.037 167.316 276.177 168.646H271.431ZM283.719 164.404V162.99H282.529V164.404H283.719ZM282.557 165.65V173H283.691V165.65H282.557ZM286.145 166.518V171.306C286.145 172.72 286.943 173.14 288.161 173.14C288.287 173.14 288.427 173.126 288.553 173.112V172.244C288.441 172.258 288.399 172.258 288.329 172.258C287.643 172.258 287.293 171.95 287.293 171.208V166.518H288.693V165.65H287.293V163.662H286.145V165.65H285.011V166.518H286.145ZM293.714 173H294.876V162.99H293.714V173ZM298.252 164.404V162.99H297.062V164.404H298.252ZM297.09 165.65V173H298.224V165.65H297.09ZM302.289 173H303.633L306.433 165.65H305.243L303.941 169.36C303.591 170.396 303.367 170.886 303.045 171.908H303.017C302.681 170.844 302.527 170.494 302.205 169.528L300.861 165.65H299.559C300.455 168.002 301.407 170.62 302.289 173ZM314.2 169.514C314.2 169.472 314.214 169.402 314.214 169.262C314.214 167.302 313.15 165.454 310.728 165.454C308.502 165.454 307.032 167.036 307.032 169.346C307.032 171.572 308.404 173.182 310.714 173.182C312.394 173.182 313.584 172.202 314.046 170.914H312.87C312.52 171.614 311.848 172.244 310.742 172.244C309.244 172.244 308.278 171.25 308.194 169.514H314.2ZM308.25 168.646C308.432 167.288 309.3 166.364 310.7 166.364C312.142 166.364 312.856 167.316 312.996 168.646H308.25Z" fill="#777E8B"/>
<path d="M115.339 151H117.323V146.04C117.323 145.032 117.307 142.952 117.307 142.328H117.323C117.499 142.648 118.043 143.544 118.731 144.728L122.411 151H124.827V139.56H122.891V145.208C122.891 146.312 122.907 147.576 122.907 148.232L122.891 148.248C122.587 147.72 122.027 146.792 121.643 146.12L117.835 139.56H115.339V151ZM130.969 142.312C128.329 142.312 126.585 144.168 126.585 146.808C126.585 149.384 128.233 151.256 130.937 151.256C133.657 151.256 135.369 149.4 135.369 146.808C135.369 144.168 133.625 142.312 130.969 142.312ZM130.937 143.944C132.409 143.944 133.305 145.128 133.305 146.792C133.305 148.504 132.425 149.624 130.937 149.624C129.465 149.624 128.585 148.504 128.585 146.792C128.585 145.128 129.481 143.944 130.937 143.944ZM142.725 151H144.549L147.781 142.6H145.701L144.677 145.736C144.245 147.048 144.037 147.512 143.701 148.68H143.669C143.285 147.464 143.061 146.904 142.741 145.928L141.653 142.6H139.509C140.565 145.32 141.669 148.28 142.725 151ZM148.984 142.6V151H150.936V142.6H148.984ZM148.952 141.384H150.952V139.56H148.952V141.384ZM152.451 148.344C152.771 150.312 154.003 151.256 156.083 151.256C158.035 151.256 159.427 150.152 159.427 148.488C159.427 147.048 158.579 146.472 156.851 146.008L155.923 145.768C155.075 145.544 154.627 145.352 154.627 144.808C154.627 144.296 155.059 143.88 155.923 143.88C156.755 143.88 157.315 144.264 157.555 144.952H159.283C159.139 143.288 157.779 142.328 155.971 142.328C154.099 142.328 152.739 143.384 152.739 144.92C152.739 146.456 153.827 147.032 155.187 147.4L156.115 147.656C156.979 147.896 157.603 148.056 157.603 148.648C157.603 149.288 156.947 149.688 156.115 149.688C155.155 149.688 154.515 149.176 154.291 148.344H152.451ZM166.627 151H168.483C168.467 150.6 168.467 150.168 168.467 149.736V142.6H166.515V147C166.515 148.312 166.179 149.608 164.659 149.608C163.331 149.608 162.931 148.568 162.931 147.08V142.6H160.979V147.56C160.979 150.104 162.131 151.224 164.019 151.224C165.267 151.224 166.131 150.664 166.627 149.8V151ZM172.283 145.224C172.379 144.408 172.875 143.848 173.979 143.848C175.083 143.848 175.579 144.376 175.611 145.768C175.067 145.816 174.395 145.896 173.675 145.992C171.899 146.248 170.027 146.904 170.027 148.664C170.027 150.248 171.275 151.16 173.019 151.16C174.379 151.16 175.339 150.568 175.803 149.88C175.803 150.376 175.851 150.76 175.899 151H177.691C177.563 150.392 177.499 149.56 177.499 148.392V146.04C177.499 143.176 176.075 142.328 174.027 142.328C171.835 142.328 170.507 143.592 170.427 145.224H172.283ZM175.627 147.48C175.627 148.904 174.971 149.768 173.563 149.768C172.683 149.768 172.107 149.384 172.107 148.616C172.107 147.72 173.083 147.4 175.211 147.176L175.643 147.128C175.627 147.288 175.627 147.464 175.627 147.48ZM179.635 151H181.587V139.56H179.635V151ZM183.804 142.6V151H185.756V142.6H183.804ZM183.772 141.384H185.772V139.56H183.772V141.384ZM187.416 151H194.2V149.448H191.912C191.192 149.448 190.328 149.464 189.72 149.464C190.072 149.064 190.456 148.536 190.84 148.056L193.992 144.104V142.6H187.544V144.152H189.72C190.36 144.152 191.128 144.152 191.704 144.136C191.448 144.44 191.336 144.6 190.728 145.352L187.416 149.528V151ZM197.48 145.224C197.576 144.408 198.072 143.848 199.176 143.848C200.28 143.848 200.776 144.376 200.808 145.768C200.264 145.816 199.592 145.896 198.872 145.992C197.096 146.248 195.224 146.904 195.224 148.664C195.224 150.248 196.472 151.16 198.216 151.16C199.576 151.16 200.536 150.568 201 149.88C201 150.376 201.048 150.76 201.096 151H202.888C202.76 150.392 202.696 149.56 202.696 148.392V146.04C202.696 143.176 201.272 142.328 199.224 142.328C197.032 142.328 195.704 143.592 195.624 145.224H197.48ZM200.824 147.48C200.824 148.904 200.168 149.768 198.76 149.768C197.88 149.768 197.304 149.384 197.304 148.616C197.304 147.72 198.28 147.4 200.408 147.176L200.84 147.128C200.824 147.288 200.824 147.464 200.824 147.48ZM207.136 140.328H205.184V142.6H203.92V144.056H205.184V148.984C205.184 150.648 206.208 151.16 207.792 151.16C208.144 151.16 208.384 151.128 208.544 151.096V149.656C208.464 149.672 208.32 149.688 208.144 149.688C207.504 149.688 207.136 149.432 207.136 148.648V144.056H208.704V142.6H207.136V140.328ZM210.173 142.6V151H212.125V142.6H210.173ZM210.141 141.384H212.141V139.56H210.141V141.384ZM218.153 142.312C215.513 142.312 213.769 144.168 213.769 146.808C213.769 149.384 215.417 151.256 218.121 151.256C220.841 151.256 222.553 149.4 222.553 146.808C222.553 144.168 220.809 142.312 218.153 142.312ZM218.121 143.944C219.593 143.944 220.489 145.128 220.489 146.792C220.489 148.504 219.609 149.624 218.121 149.624C216.649 149.624 215.769 148.504 215.769 146.792C215.769 145.128 216.665 143.944 218.121 143.944ZM226.073 142.584H224.201C224.217 143.016 224.217 143.432 224.217 143.864V151H226.169V146.312C226.169 145 226.745 143.96 228.073 143.96C229.385 143.96 229.785 145.016 229.785 146.664V151H231.737V145.784C231.737 143.624 230.617 142.328 228.697 142.328C227.401 142.328 226.585 142.888 226.073 143.656C226.057 143.656 226.057 143.656 226.057 143.64C226.073 143.464 226.073 143.288 226.073 143.112V142.584ZM237.074 148.344C237.394 150.312 238.626 151.256 240.706 151.256C242.658 151.256 244.05 150.152 244.05 148.488C244.05 147.048 243.202 146.472 241.474 146.008L240.546 145.768C239.698 145.544 239.25 145.352 239.25 144.808C239.25 144.296 239.682 143.88 240.546 143.88C241.378 143.88 241.938 144.264 242.178 144.952H243.906C243.762 143.288 242.402 142.328 240.594 142.328C238.722 142.328 237.362 143.384 237.362 144.92C237.362 146.456 238.45 147.032 239.81 147.4L240.738 147.656C241.602 147.896 242.226 148.056 242.226 148.648C242.226 149.288 241.57 149.688 240.738 149.688C239.778 149.688 239.138 149.176 238.914 148.344H237.074ZM253.537 147.288C253.537 147.256 253.553 147.048 253.553 146.76C253.537 144.312 252.129 142.312 249.441 142.312C246.881 142.312 245.153 144.216 245.153 146.776C245.153 149.4 246.849 151.256 249.473 151.256C251.505 151.256 252.897 150.136 253.409 148.6H251.441C251.089 149.24 250.465 149.64 249.521 149.64C248.161 149.64 247.233 148.648 247.105 147.272L253.537 147.288ZM247.169 145.88C247.329 144.552 248.209 143.832 249.425 143.832C250.673 143.832 251.473 144.728 251.601 145.88H247.169ZM255.165 151H257.117V139.56H255.165V151ZM267.191 147.288C267.191 147.256 267.207 147.048 267.207 146.76C267.191 144.312 265.783 142.312 263.095 142.312C260.535 142.312 258.807 144.216 258.807 146.776C258.807 149.4 260.503 151.256 263.127 151.256C265.159 151.256 266.551 150.136 267.063 148.6H265.095C264.743 149.24 264.119 149.64 263.175 149.64C261.815 149.64 260.887 148.648 260.759 147.272L267.191 147.288ZM260.823 145.88C260.983 144.552 261.863 143.832 263.079 143.832C264.327 143.832 265.127 144.728 265.255 145.88H260.823ZM274.563 148.312C274.243 149.112 273.571 149.64 272.611 149.64C271.123 149.64 270.243 148.488 270.243 146.76C270.243 145.128 271.123 143.944 272.531 143.944C273.539 143.944 274.131 144.504 274.467 145.384H276.499C276.099 143.592 274.739 142.312 272.563 142.312C269.955 142.312 268.243 144.232 268.243 146.792C268.243 149.368 269.875 151.256 272.531 151.256C274.691 151.256 276.019 149.992 276.483 148.312H274.563ZM280.402 140.328H278.45V142.6H277.186V144.056H278.45V148.984C278.45 150.648 279.474 151.16 281.058 151.16C281.41 151.16 281.65 151.128 281.81 151.096V149.656C281.73 149.672 281.586 149.688 281.41 149.688C280.77 149.688 280.402 149.432 280.402 148.648V144.056H281.97V142.6H280.402V140.328ZM291.217 147.288C291.217 147.256 291.233 147.048 291.233 146.76C291.217 144.312 289.809 142.312 287.121 142.312C284.561 142.312 282.833 144.216 282.833 146.776C282.833 149.4 284.529 151.256 287.153 151.256C289.185 151.256 290.577 150.136 291.089 148.6H289.121C288.769 149.24 288.145 149.64 287.201 149.64C285.841 149.64 284.913 148.648 284.785 147.272L291.217 147.288ZM284.849 145.88C285.009 144.552 285.889 143.832 287.105 143.832C288.353 143.832 289.153 144.728 289.281 145.88H284.849ZM300.893 151V139.56H298.941V142.008C298.941 142.584 298.941 143.08 298.957 143.672C298.493 142.984 297.533 142.328 296.205 142.328C293.805 142.328 292.285 144.232 292.285 146.776C292.285 149.4 293.869 151.192 296.157 151.192C297.597 151.192 298.573 150.552 299.053 149.816V151H300.893ZM296.621 143.944C298.029 143.944 299.037 145.128 299.037 146.744C299.037 148.392 298.125 149.608 296.605 149.608C295.149 149.608 294.285 148.408 294.285 146.808C294.285 145.208 295.149 143.944 296.621 143.944Z" fill="#777E8B"/>
<circle cx="269.607" cy="66.7735" r="1.39288" transform="rotate(90 269.607 66.7735)" fill="#777E8B"/>
<circle cx="269.607" cy="72.7964" r="1.39288" transform="rotate(90 269.607 72.7964)" fill="#777E8B"/>
<circle cx="269.607" cy="78.8199" r="1.39288" transform="rotate(90 269.607 78.8199)" fill="#777E8B"/>
<circle cx="269.607" cy="84.8431" r="1.39288" transform="rotate(90 269.607 84.8431)" fill="#777E8B"/>
<circle cx="263.584" cy="66.7735" r="1.39288" transform="rotate(90 263.584 66.7735)" fill="#777E8B"/>
<circle cx="263.584" cy="72.7964" r="1.39288" transform="rotate(90 263.584 72.7964)" fill="#777E8B"/>
<circle cx="263.584" cy="78.8199" r="1.39288" transform="rotate(90 263.584 78.8199)" fill="#777E8B"/>
<circle cx="263.584" cy="84.8431" r="1.39288" transform="rotate(90 263.584 84.8431)" fill="#777E8B"/>
<circle cx="257.56" cy="66.7735" r="1.39288" transform="rotate(90 257.56 66.7735)" fill="#777E8B"/>
<circle cx="257.56" cy="72.7964" r="1.39288" transform="rotate(90 257.56 72.7964)" fill="#777E8B"/>
<circle cx="257.56" cy="78.8199" r="1.39288" transform="rotate(90 257.56 78.8199)" fill="#777E8B"/>
<circle cx="257.56" cy="84.8431" r="1.39288" transform="rotate(90 257.56 84.8431)" fill="#777E8B"/>
<circle cx="251.537" cy="66.7735" r="1.39288" transform="rotate(90 251.537 66.7735)" fill="#777E8B"/>
<circle cx="251.537" cy="72.7964" r="1.39288" transform="rotate(90 251.537 72.7964)" fill="#777E8B"/>
<circle cx="251.537" cy="78.8199" r="1.39288" transform="rotate(90 251.537 78.8199)" fill="#777E8B"/>
<circle cx="251.537" cy="84.8431" r="1.39288" transform="rotate(90 251.537 84.8431)" fill="#777E8B"/>
<circle cx="246.021" cy="60.7503" r="1.39288" transform="rotate(90 246.021 60.7503)" fill="#777E8B"/>
<circle cx="246.021" cy="66.7735" r="1.39288" transform="rotate(90 246.021 66.7735)" fill="#777E8B"/>
<circle cx="246.021" cy="72.7964" r="1.39288" transform="rotate(90 246.021 72.7964)" fill="#777E8B"/>
<circle cx="246.021" cy="78.8199" r="1.39288" transform="rotate(90 246.021 78.8199)" fill="#777E8B"/>
<circle cx="246.021" cy="84.8431" r="1.39288" transform="rotate(90 246.021 84.8431)" fill="#777E8B"/>
<circle cx="240.338" cy="60.7503" r="1.39288" transform="rotate(90 240.338 60.7503)" fill="#777E8B"/>
<circle cx="240.338" cy="66.7735" r="1.39288" transform="rotate(90 240.338 66.7735)" fill="#777E8B"/>
<circle cx="240.338" cy="72.7964" r="1.39288" transform="rotate(90 240.338 72.7964)" fill="#777E8B"/>
<circle cx="240.338" cy="78.8199" r="1.39288" transform="rotate(90 240.338 78.8199)" fill="#777E8B"/>
<circle cx="240.338" cy="84.8431" r="1.39288" transform="rotate(90 240.338 84.8431)" fill="#777E8B"/>
<circle cx="234.314" cy="60.7503" r="1.39288" transform="rotate(90 234.314 60.7503)" fill="#777E8B"/>
<circle cx="234.314" cy="66.7735" r="1.39288" transform="rotate(90 234.314 66.7735)" fill="#777E8B"/>
<circle cx="234.314" cy="72.7964" r="1.39288" transform="rotate(90 234.314 72.7964)" fill="#777E8B"/>
<circle cx="234.314" cy="78.8199" r="1.39288" transform="rotate(90 234.314 78.8199)" fill="#777E8B"/>
<circle cx="234.314" cy="84.8431" r="1.39288" transform="rotate(90 234.314 84.8431)" fill="#777E8B"/>
<circle cx="228.291" cy="60.7503" r="1.39288" transform="rotate(90 228.291 60.7503)" fill="#777E8B"/>
<circle cx="228.291" cy="66.7735" r="1.39288" transform="rotate(90 228.291 66.7735)" fill="#777E8B"/>
<circle cx="228.291" cy="72.7964" r="1.39288" transform="rotate(90 228.291 72.7964)" fill="#777E8B"/>
<circle cx="228.291" cy="78.8199" r="1.39288" transform="rotate(90 228.291 78.8199)" fill="#777E8B"/>
<circle cx="228.291" cy="84.8431" r="1.39288" transform="rotate(90 228.291 84.8431)" fill="#777E8B"/>
<circle cx="240.42" cy="98.1719" r="1.39288" transform="rotate(90 240.42 98.1719)" fill="#777E8B"/>
<circle cx="240.42" cy="104.195" r="1.39288" transform="rotate(90 240.42 104.195)" fill="#777E8B"/>
<circle cx="240.42" cy="110.218" r="1.39288" transform="rotate(90 240.42 110.218)" fill="#777E8B"/>
<circle cx="240.42" cy="116.242" r="1.39288" transform="rotate(90 240.42 116.242)" fill="#777E8B"/>
<circle cx="234.396" cy="98.1719" r="1.39288" transform="rotate(90 234.396 98.1719)" fill="#777E8B"/>
<circle cx="234.396" cy="104.195" r="1.39288" transform="rotate(90 234.396 104.195)" fill="#777E8B"/>
<circle cx="234.396" cy="110.218" r="1.39288" transform="rotate(90 234.396 110.218)" fill="#777E8B"/>
<circle cx="234.396" cy="116.242" r="1.39288" transform="rotate(90 234.396 116.242)" fill="#777E8B"/>
<circle cx="228.373" cy="98.1719" r="1.39288" transform="rotate(90 228.373 98.1719)" fill="#777E8B"/>
<circle cx="228.373" cy="104.195" r="1.39288" transform="rotate(90 228.373 104.195)" fill="#777E8B"/>
<circle cx="228.373" cy="110.218" r="1.39288" transform="rotate(90 228.373 110.218)" fill="#777E8B"/>
<circle cx="228.373" cy="116.242" r="1.39288" transform="rotate(90 228.373 116.242)" fill="#777E8B"/>
<circle cx="222.349" cy="98.1719" r="1.39288" transform="rotate(90 222.349 98.1719)" fill="#777E8B"/>
<circle cx="222.349" cy="104.195" r="1.39288" transform="rotate(90 222.349 104.195)" fill="#777E8B"/>
<circle cx="222.349" cy="110.218" r="1.39288" transform="rotate(90 222.349 110.218)" fill="#777E8B"/>
<circle cx="222.349" cy="116.242" r="1.39288" transform="rotate(90 222.349 116.242)" fill="#777E8B"/>
<circle cx="216.83" cy="98.1719" r="1.39288" transform="rotate(90 216.83 98.1719)" fill="#777E8B"/>
<circle cx="216.83" cy="104.195" r="1.39288" transform="rotate(90 216.83 104.195)" fill="#777E8B"/>
<circle cx="216.83" cy="110.218" r="1.39288" transform="rotate(90 216.83 110.218)" fill="#777E8B"/>
<circle cx="216.83" cy="116.242" r="1.39288" transform="rotate(90 216.83 116.242)" fill="#777E8B"/>
<circle cx="269.607" cy="92.0557" r="1.39288" transform="rotate(90 269.607 92.0557)" fill="#777E8B"/>
<circle cx="269.607" cy="98.0789" r="1.39288" transform="rotate(90 269.607 98.0789)" fill="#777E8B"/>
<circle cx="269.607" cy="104.102" r="1.39288" transform="rotate(90 269.607 104.102)" fill="#777E8B"/>
<circle cx="269.607" cy="110.125" r="1.39288" transform="rotate(90 269.607 110.125)" fill="#777E8B"/>
<circle cx="269.607" cy="116.148" r="1.39288" transform="rotate(90 269.607 116.148)" fill="#777E8B"/>
<circle cx="263.584" cy="92.0557" r="1.39288" transform="rotate(90 263.584 92.0557)" fill="#777E8B"/>
<circle cx="263.584" cy="98.0789" r="1.39288" transform="rotate(90 263.584 98.0789)" fill="#777E8B"/>
<circle cx="263.584" cy="104.102" r="1.39288" transform="rotate(90 263.584 104.102)" fill="#777E8B"/>
<circle cx="263.584" cy="110.125" r="1.39288" transform="rotate(90 263.584 110.125)" fill="#777E8B"/>
<circle cx="263.584" cy="116.148" r="1.39288" transform="rotate(90 263.584 116.148)" fill="#777E8B"/>
<circle cx="257.56" cy="92.0557" r="1.39288" transform="rotate(90 257.56 92.0557)" fill="#777E8B"/>
<circle cx="257.56" cy="98.0789" r="1.39288" transform="rotate(90 257.56 98.0789)" fill="#777E8B"/>
<circle cx="257.56" cy="104.102" r="1.39288" transform="rotate(90 257.56 104.102)" fill="#777E8B"/>
<circle cx="257.56" cy="110.125" r="1.39288" transform="rotate(90 257.56 110.125)" fill="#777E8B"/>
<circle cx="257.56" cy="116.148" r="1.39288" transform="rotate(90 257.56 116.148)" fill="#777E8B"/>
<circle cx="251.537" cy="92.0557" r="1.39288" transform="rotate(90 251.537 92.0557)" fill="#777E8B"/>
<circle cx="251.537" cy="98.0789" r="1.39288" transform="rotate(90 251.537 98.0789)" fill="#777E8B"/>
<circle cx="251.537" cy="104.102" r="1.39288" transform="rotate(90 251.537 104.102)" fill="#777E8B"/>
<circle cx="251.537" cy="110.125" r="1.39288" transform="rotate(90 251.537 110.125)" fill="#777E8B"/>
<circle cx="251.537" cy="116.148" r="1.39288" transform="rotate(90 251.537 116.148)" fill="#777E8B"/>
<circle cx="246.017" cy="98.0789" r="1.39288" transform="rotate(90 246.017 98.0789)" fill="#777E8B"/>
<circle cx="246.017" cy="104.102" r="1.39288" transform="rotate(90 246.017 104.102)" fill="#777E8B"/>
<circle cx="246.017" cy="110.125" r="1.39288" transform="rotate(90 246.017 110.125)" fill="#777E8B"/>
<circle cx="246.017" cy="116.148" r="1.39288" transform="rotate(90 246.017 116.148)" fill="#777E8B"/>
<rect x="170.137" y="17.8169" width="77.5717" height="75.5303" fill="#C0C6CF"/>
<path d="M148 3H199.649" stroke="#777E8B" stroke-width="5"/>
<path d="M148 13.3298H199.649" stroke="#777E8B" stroke-width="5"/>
<path d="M148 23.6594H199.649" stroke="#777E8B" stroke-width="5"/>
<path d="M148 33.9893H199.649" stroke="#777E8B" stroke-width="5"/>
<path d="M148 44.3191H199.649" stroke="#777E8B" stroke-width="5"/>
<path d="M170.137 23.6594H199.65" stroke="white" stroke-width="5"/>
<path d="M170.137 33.9893H199.65" stroke="white" stroke-width="5"/>
<path d="M170.137 44.3191H199.65" stroke="white" stroke-width="5"/>
</svg>
